<?xml version="1.0" encoding="UTF-8"?>
<!DOCTYPE svg PUBLIC "-//W3C//DTD SVG 1.1//EN" "http://www.w3.org/Graphics/SVG/1.1/DTD/svg11.dtd">
<!-- Creator: CorelDRAW X6 -->
<svg xmlns="http://www.w3.org/2000/svg" xml:space="preserve" width="123.657mm" height="119.307mm" version="1.1" style="shape-rendering:geometricPrecision; text-rendering:geometricPrecision; image-rendering:optimizeQuality; fill-rule:evenodd; clip-rule:evenodd"
viewBox="0 0 12366 11931"
 xmlns:xlink="http://www.w3.org/1999/xlink">
 <defs>
  <style type="text/css">
   <![CDATA[
    .fil3 {fill:#133607}
    .fil0 {fill:#241305}
    .fil4 {fill:#276C0F}
    .fil5 {fill:#329013}
    .fil7 {fill:#4B240E}
    .fil1 {fill:#5A300C}
    .fil2 {fill:#976442}
    .fil8 {fill:#B98255}
    .fil6 {fill:#BA8256}
    .fil12 {fill:#4B240E;fill-rule:nonzero}
    .fil10 {fill:url(#id0)}
    .fil9 {fill:url(#id1)}
    .fil11 {fill:url(#id2)}
   ]]>
  </style>
  <linearGradient id="id0" gradientUnits="userSpaceOnUse" x1="6399.15" y1="8661.04" x2="6399.15" y2="7712.8">
   <stop offset="0" style="stop-color:#5A300C"/>
   <stop offset="0.188235" style="stop-color:#8A5931"/>
   <stop offset="1" style="stop-color:#BA8256"/>
  </linearGradient>
  <linearGradient id="id1" gradientUnits="userSpaceOnUse" x1="6399.15" y1="8661.04" x2="6399.15" y2="7712.79">
   <stop offset="0" style="stop-color:#5A300C"/>
   <stop offset="1" style="stop-color:#B98255"/>
  </linearGradient>
  <linearGradient id="id2" gradientUnits="userSpaceOnUse" x1="4555.7" y1="9971" x2="3605.22" y2="10522">
   <stop offset="0" style="stop-color:#74462E"/>
   <stop offset="1" style="stop-color:#BA8256"/>
  </linearGradient>
 </defs>
 <g id="Baum">
  <metadata id="CorelCorpID_0Corel-Layer"/>
  <path class="fil0" d="M9754 2529c102,25 205,47 299,55 238,20 377,-13 608,71 42,-72 90,-123 172,-144 128,-33 224,0 320,90 60,48 273,211 186,300 -71,73 -260,123 -362,131 -207,15 -306,-114 -341,-292 -188,-51 -318,-49 -509,-48 -41,-25 -84,-48 -128,-70 -69,-35 -154,-66 -246,-93zm-5294 -821c23,-11 28,-92 33,-120 9,-52 21,-103 35,-154 338,-1210 1444,-1459 2542,-1433 23,1 52,6 67,25 12,61 -93,199 -126,261 -251,474 -518,833 -954,1148 333,-15 482,41 781,-110 10,51 16,57 52,95 -17,16 -39,28 -60,40 374,49 627,95 989,211l4 13c-35,25 -143,18 -182,30 -41,10 -85,11 -127,15 -23,15 -41,13 -68,14l-10 7 2 22c21,6 24,6 45,7l7 6 12 1c111,12 240,1 343,13 182,21 424,153 595,236 61,4 344,119 414,146 63,52 260,192 328,231l-3 12c-40,22 -96,20 -139,5l-52 -2c-20,2 -33,2 -52,8 -18,28 9,75 9,122 -270,-193 -627,-329 -940,-437 56,69 112,137 161,210 -45,18 -54,27 -86,63 -45,-105 -192,-246 -291,-302 -54,-31 -107,-59 -168,-75 -360,-91 -746,-132 -1117,-137 -77,-1 -193,-6 -264,11 -263,-11 -509,58 -772,37 -29,-2 -97,9 -128,13 -23,24 -27,42 -8,71 -208,31 -584,151 -778,228 138,12 201,27 337,61 -28,37 -33,47 -53,88 -252,-87 -545,-48 -779,71 -230,117 -567,310 -763,480 89,-42 171,-83 262,-120 365,-147 772,-161 1143,-22 325,122 615,333 860,576 41,41 123,115 120,173 -9,13 -31,25 -46,27 -335,58 -663,202 -995,261 -577,103 -1139,-85 -1601,-426 -24,-18 -55,-40 -79,-57 -132,35 -242,95 -339,192 -62,79 -130,154 -192,232 -154,197 -295,405 -420,621 -30,52 -100,175 -121,229 -189,240 -273,385 -369,679 -39,118 -59,345 -133,417 -32,92 -158,343 -133,425l7 5c21,-38 42,-90 63,-121l0 4c1,0 78,-125 87,-138 26,-36 53,-70 81,-101 -89,164 -121,737 -115,917 -40,99 -86,208 -98,314 -20,266 31,445 76,705l-1 -8c2,-32 3,-69 11,-100 13,-55 13,-92 76,-105 47,307 139,589 248,878 25,-136 106,-370 227,-444 225,-138 305,172 258,335 -27,94 -92,162 -129,251 -134,272 -26,579 108,832 124,234 402,628 607,793 100,80 214,141 336,180 246,77 442,43 623,-126 37,-35 100,-64 138,-101 157,-133 243,-280 319,-468 -648,-634 -277,-1001 -475,-1696 -72,112 -138,219 -230,316 -109,115 -236,210 -350,320 -27,30 -62,64 -80,101 -40,83 -24,236 -133,267 -55,16 -84,-50 -99,-93 -36,53 -127,208 -184,201 -172,-19 -40,-347 15,-424 129,-182 277,-335 411,-518 187,-254 256,-593 484,-802 -232,-200 -348,-457 -370,-762 -8,-121 -3,-242 14,-361 34,-243 157,-591 -35,-794 -69,-73 -355,-47 -161,-286 109,-134 348,-46 463,45 -12,-204 7,-389 80,-579 59,-154 78,-277 265,-282 208,-6 103,129 86,255 -26,133 -29,258 -24,393 61,-182 158,-384 330,-494 79,-50 266,84 192,169 -275,318 -196,673 43,984 259,345 366,700 337,1137 160,-197 379,-559 367,-835 -6,-138 -90,-267 37,-406 33,-38 91,-88 144,-86 251,12 260,251 201,425 74,279 196,491 409,685 -157,-549 53,-811 214,-1311 36,-112 58,-244 52,-363 -8,-133 -46,-263 -110,-381 -24,-42 -60,-93 -77,-136 -39,-101 154,-215 233,-157 103,76 185,229 241,340 24,-169 97,-497 228,-627 47,-47 215,16 244,65 20,24 -11,99 -22,125 -47,119 -66,213 -72,342 73,-126 211,-341 351,-407 51,-24 173,89 179,139 9,50 -52,109 -85,146 158,68 135,119 71,261 72,-59 201,-177 302,-185 37,2 69,43 90,69 94,115 25,172 -64,251 -657,585 30,1505 -548,2141 37,32 73,64 109,96 251,223 410,520 523,832 208,-239 383,-375 687,-480 -232,-981 804,-1216 364,-2133 -22,-46 -86,-110 -47,-161 190,-237 325,122 404,255 1,-51 1,-108 -1,-159 -6,-111 -25,-203 127,-194 107,6 121,159 135,244 30,-137 32,-253 21,-392 3,-56 -45,-202 11,-235 161,-94 225,-9 255,143 40,202 47,377 44,581 56,-89 437,-648 566,-292 8,23 -15,67 -30,81 -71,71 -123,117 -187,195 51,-21 104,-45 157,-21 58,26 34,92 14,132l-3 6c79,-40 128,-69 215,-91 134,-33 210,187 105,233 -216,94 -369,296 -449,514 -58,157 -78,334 -98,500 -54,434 -145,768 -496,1054 279,19 596,-31 829,-199 90,-65 83,-253 218,-261 47,-3 61,72 66,105 56,-43 156,-123 217,-102 188,64 -22,366 -139,414 -29,12 -190,92 -200,101 -273,234 -566,361 -921,412 -51,7 -213,28 -228,93 -29,160 -27,404 59,548 95,158 292,212 428,331 92,81 163,180 228,279 143,-316 355,-533 479,-839 18,-44 33,-90 46,-136 14,-52 44,-252 68,-277 22,-3 12,-5 32,6 81,108 40,425 8,550 90,-97 187,-208 276,-301 -57,-764 -69,-1022 320,-1708 -231,-375 -408,-690 -291,-1145 13,-51 75,-311 144,-292 25,34 9,162 7,210 -14,357 98,604 285,898 73,-263 85,-486 -18,-745 -21,-54 -72,-153 -40,-200 41,-12 77,40 101,69 316,373 305,759 153,1196 30,50 42,78 65,131 42,-166 78,-246 176,-385 -102,-268 64,-453 300,-546 88,-35 107,7 127,91 41,254 -65,514 -359,511 -87,137 -156,322 -165,485 -4,75 11,187 16,265 10,148 -1,296 -34,441 -90,382 -246,565 -455,865 0,66 1,132 0,198 43,-52 229,-254 298,-202 18,46 -73,133 -101,177 -49,76 -99,153 -139,235 -42,95 -88,192 -121,290 -33,97 -60,186 -99,282 -220,533 -684,956 -1168,1252 -67,41 -137,76 -200,124 -97,78 -175,169 -280,244 -422,304 -915,535 -1412,685 -126,38 -235,44 -356,73 -59,14 -176,69 -244,90 -234,72 -450,79 -691,52 -220,-25 -438,-80 -658,-89 -101,-4 -204,44 -302,67 -90,21 -211,39 -306,40 -736,12 -1588,-320 -2226,-662 -156,-83 -294,-171 -437,-271 -149,-102 -291,-224 -451,-306 -41,-21 -121,-49 -160,-28 -147,76 -184,168 -352,226 -285,99 -515,-97 -773,-102 -55,-1 -109,6 -162,21 -43,13 -153,63 -188,61 -49,-29 -32,-72 -6,-110 128,-193 286,-265 515,-241 112,12 336,67 410,-42 79,-116 -13,-309 -82,-409 -93,-135 -186,-261 -277,-396 -279,-443 -481,-935 -620,-1438 -8,-29 -17,-61 -23,-90l-18 -67c-35,-19 -74,-31 -110,-46 -332,-142 -547,-413 -595,-772 -4,-31 -64,-527 28,-491 211,85 412,262 557,436 -10,-307 -38,-561 -251,-809 -195,39 -310,-45 -318,-261 -4,-91 120,-134 199,-115 170,42 220,146 179,309 92,98 130,163 191,280 13,-219 33,-376 64,-593 1,-32 -81,-102 -107,-132 -45,-53 -88,-108 -129,-165 -600,-832 -365,-1718 141,-2516 33,-52 65,-116 116,-152 24,-3 12,-5 35,6 20,24 79,185 101,231 201,424 330,677 390,1147 8,-15 16,-29 24,-44 168,-315 234,-559 126,-914 -66,-6 -119,-12 -178,-51 -171,-113 -154,-414 -70,-572 49,-93 273,108 322,144 56,40 100,127 105,197 7,104 -33,170 -96,245 72,199 70,280 65,486 88,-139 183,-273 286,-401 8,-15 13,-17 7,-34 -17,-58 -40,-118 -60,-175 -33,-96 -59,-193 -80,-292 -53,-248 -56,-504 -11,-754 136,-707 691,-1151 1255,-1527 33,-22 65,-46 106,-38 42,33 31,77 30,125 -4,293 26,578 13,872 -15,314 -81,552 -205,836 37,-9 96,-66 132,-87 211,-128 321,-252 435,-468 30,26 32,25 69,38l22 8c-23,47 -47,94 -72,140 272,-160 718,-372 1017,-460zm7040 5221c6,9 10,19 14,29 99,281 -35,659 -166,910 -4,6 -9,10 -14,15l-5 -8c-13,-357 33,-613 172,-946zm-6928 3110c123,121 194,339 244,500 -268,87 -512,242 -790,300 -72,14 -145,18 -218,21 20,-93 14,-195 59,-282 56,-108 349,-253 460,-332 88,-61 169,-131 244,-207zm786 -3570c26,40 44,89 65,133 31,65 64,128 101,190 58,96 125,186 200,270 46,51 95,99 139,152 -38,134 -56,275 -74,413 -86,21 -164,57 -214,134 -52,80 -51,164 -34,254 -40,94 -56,182 -33,283 28,124 100,193 205,258 -7,108 -21,217 -49,322 -61,228 -161,453 -181,690 -7,89 0,177 16,264 16,88 87,310 74,379 -11,62 -72,98 -119,132 -33,27 -68,59 -107,79 -3,1 -6,3 -8,4 -37,18 -77,20 -117,25 -32,-334 -76,-596 -198,-911 27,-55 51,-111 72,-168 52,-143 86,-294 107,-445 79,-558 -64,-1027 -298,-1526 220,-298 356,-575 453,-933zm-1759 4207c7,6 4,2 7,14 17,54 38,106 64,156 -58,-14 -114,-30 -170,-47 -51,-19 -99,-42 -147,-66 87,-8 165,-26 246,-57zm2736 -1528c65,-1 126,13 188,32 -74,108 -133,220 -174,345 -125,389 -59,794 123,1151 -51,-31 -105,-55 -159,-80 -132,-63 -271,-111 -413,-144 84,-147 23,-328 23,-489 -1,-145 27,-289 85,-423 62,-143 175,-332 327,-391zm4673 -346l3 3c14,36 -27,209 -46,248 -63,134 -251,230 -383,280l-4 -3c19,-85 347,-438 429,-528zm-317 815c-10,82 -390,435 -473,503 -5,-34 121,-322 141,-376 118,-29 224,-72 332,-127zm-1580 -302c89,1 174,20 258,44 256,72 377,176 584,326 -45,131 -89,262 -144,389 -52,120 -143,322 -233,411 -90,89 -475,239 -608,293l-102 38c50,-52 99,-109 135,-171 16,-28 33,-57 24,-89l-15 -6c-74,10 -223,126 -293,170l-1 -7 -1 -12c-22,-199 -221,-348 -240,-558 -16,-182 157,-510 273,-648 95,-113 217,-167 362,-180zm-4238 1531l6 2c14,14 12,39 15,57 15,111 58,189 148,257 -317,39 -427,230 -757,122 -71,-29 -141,-61 -210,-95 104,-33 205,-68 304,-113 167,-76 323,-165 495,-230zm2078 409c52,-2 176,72 230,92 134,49 275,72 416,91 -104,51 -214,77 -329,94 -211,27 -424,-16 -633,-46 98,-87 205,-161 316,-231zm-1496 -519c430,-34 796,139 1161,342 -128,69 -244,155 -365,235 -240,158 -506,248 -794,255 -159,1 -308,-23 -462,-60 193,-108 341,-54 544,-86 132,-20 247,-76 325,-187 14,-20 30,-41 25,-67 -41,-35 -178,37 -234,45 -54,8 -111,6 -165,0l-7 -1c-136,-165 -228,-225 -245,-453 72,-11 144,-19 216,-24zm1257 -1338c178,271 221,575 228,893 1,57 13,119 6,176 -21,21 -67,17 -63,57 8,69 129,149 186,182 206,120 580,139 649,398 4,17 8,34 10,52 -70,-1 -141,-10 -213,-26 4,-2 7,-4 10,-6 7,-17 7,-17 2,-35 -90,-94 -330,-82 -448,-142 -49,-25 -97,-84 -135,-124 -235,-249 -382,-581 -373,-926 5,-178 54,-345 143,-499zm371 -1921c207,129 387,388 475,613 -36,83 -70,169 -50,261 12,56 43,105 93,134 46,27 100,30 150,17 76,-20 150,-72 186,-142 45,-86 28,-176 0,-264 81,-66 174,-116 264,-167 -116,314 -152,641 -100,972 19,121 55,241 44,364 -9,102 -40,200 -66,298 -40,147 -75,294 -86,447 -18,280 131,452 306,652 40,45 74,90 102,145 -1,46 -11,90 -23,135 -110,59 -218,117 -319,190 -12,-64 -28,-123 -59,-181 -90,-169 -243,-269 -423,-323 3,-199 -224,-179 -266,-316 -35,-116 21,-320 36,-442 10,-79 16,-158 13,-238 -8,-232 -86,-465 -143,-688 76,-48 149,-96 202,-170 56,-78 78,-171 61,-265 -21,-110 -87,-194 -178,-256 -11,-41 -31,-85 -36,-127 -9,-76 14,-148 -19,-223 -32,-71 -106,-105 -175,-129 -2,-96 -8,-199 9,-294z"/>
  <path class="fil1" d="M1599 10787c-17,-2 -131,-35 -155,-42 -181,-56 -306,-62 -490,-12 248,-196 355,-106 644,-92 243,12 327,-229 252,-429 -82,-218 -249,-386 -373,-579 -224,-349 -392,-733 -527,-1125 -20,-58 -75,-230 -76,-285 -28,-30 -60,-116 -119,-109l-9 31 -18 -67c-35,-19 -74,-31 -110,-46 -332,-142 -547,-413 -595,-772 -4,-31 -64,-527 28,-491 211,85 412,262 557,436 24,41 71,143 107,155 -27,-362 -37,-843 39,-1200l4 -10c-3,-46 -45,-110 -87,-132 1,-32 -81,-102 -107,-132 -45,-53 -88,-108 -129,-165 -600,-832 -365,-1718 141,-2516 33,-52 65,-116 116,-152 24,-3 12,-5 35,6 20,24 79,185 101,231 201,424 330,677 390,1147 5,44 3,153 18,181 45,-77 87,-181 133,-260 121,-211 294,-510 450,-696 7,-58 -2,-78 -17,-135 8,-15 13,-17 7,-34 -17,-58 -40,-118 -60,-175 -33,-96 -59,-193 -80,-292 -53,-248 -56,-504 -11,-754 136,-707 691,-1151 1255,-1527 33,-22 65,-46 106,-38 42,33 31,77 30,125 -4,293 26,578 13,872 -15,314 -81,552 -205,836 -30,55 -86,149 -100,206 -43,42 -76,73 -112,122 33,-3 370,-241 438,-282 143,-87 1052,-592 1133,-599l23 -16c63,-43 99,-78 150,-135 56,-45 72,-52 71,-127 23,-11 28,-92 33,-120 9,-52 21,-103 35,-154 338,-1210 1444,-1459 2542,-1433 23,1 52,6 67,25 12,61 -93,199 -126,261 -251,474 -518,833 -954,1148 -60,26 -106,66 -160,100 482,-25 917,-7 1392,92 111,23 246,49 353,86 -41,10 -85,11 -127,15 -23,15 -41,13 -68,14l-10 7 2 22c21,6 24,6 45,7l7 6 12 1c111,12 240,1 343,13 182,21 424,153 595,236 223,149 374,219 596,390 -17,0 -33,1 -47,2 -120,-20 -206,-83 -314,-135 -254,-124 -534,-235 -806,-312 -1561,-427 -3231,-128 -4547,814 -501,355 -923,809 -1254,1324 -318,492 -549,1035 -683,1605 -32,92 -158,343 -133,425l7 5c21,-38 42,-90 63,-121 -2,58 -4,123 -11,181 -32,267 -51,545 -35,814 -20,266 31,445 76,705l-1 -8c2,-32 3,-69 11,-100l9 36c67,330 178,618 270,938 8,27 6,101 5,132 9,30 8,55 12,86 10,70 23,136 47,202 27,-319 23,-727 249,-981 35,-34 89,-35 112,10 23,46 38,177 13,222 -116,213 -188,305 -202,558 3,448 441,1012 737,1330 174,187 573,366 833,304 45,-8 89,-22 134,-34 5,53 1,106 6,158 -102,36 -208,63 -317,57 -63,-4 -214,-53 -258,-39 320,224 586,404 998,333 269,-46 496,-191 751,-277 27,-12 54,-18 83,-23 7,39 16,78 20,117 -185,61 -352,158 -527,243 -362,177 -667,161 -1023,-20 -43,-22 -86,-45 -129,-68 13,54 126,124 171,153 119,74 252,117 391,132 60,6 126,7 183,26 88,29 163,90 249,121 48,17 161,42 198,67 131,22 258,7 377,-41 50,-20 331,-180 507,-82 127,33 262,19 392,29 -118,21 -149,57 -317,50 -166,-7 -256,4 -406,77 -43,21 -105,42 -140,74 -2,13 -5,11 3,20 58,69 532,126 631,127 6,0 12,0 19,1 257,4 517,-77 739,-202 114,-64 215,-144 325,-214 193,-123 440,-214 672,-175l2 6 -37 9c-115,44 -224,72 -330,138 -67,42 -116,101 -177,151 -52,42 -109,81 -163,120 -181,132 -358,246 -578,303 -745,190 -1941,-293 -2586,-665 -143,-84 -282,-174 -417,-271 -135,-96 -266,-214 -423,-273 -62,-24 -123,-27 -188,-25 29,-233 -25,-318 -116,-525 -32,-46 -64,-83 -110,-116 87,198 206,420 123,641 -36,96 -121,174 -214,214 -111,47 -249,43 -362,8zm7252 -8606c54,45 210,156 295,210 -102,-61 -212,-143 -295,-210zm293 245c-37,-1 -76,-2 -111,-1 30,-1 74,-1 111,1zm-201 131l0 0 0 0 0 0z"/>
  <path class="fil1" d="M7300 8359c75,84 119,191 76,301 -62,158 -261,234 -395,325 -290,194 -474,509 -501,856 -35,467 171,820 490,1137 -107,14 -143,20 -245,57 -451,-277 -948,-479 -1487,-365 -5,-39 -14,-87 1,-124 54,-30 121,34 178,48 121,30 296,-68 395,-62 315,19 588,229 861,352l8 -7c-1,-36 -27,-82 -47,-112 -125,-188 -257,-472 -253,-704 -3,-69 -7,-118 -5,-187 12,-379 217,-724 513,-952 92,-72 275,-132 273,-183 -3,-90 -98,-135 104,-262 -6,-53 9,-72 33,-119z"/>
  <path class="fil1" d="M11035 8404c0,74 2,177 -4,247 -69,63 -118,122 -181,190 -209,226 -386,449 -516,731 -176,382 -280,814 -572,1133 -409,409 -999,679 -1537,871 -76,26 -161,41 -237,65 95,-77 315,-241 421,-286 257,-108 536,-183 770,-344 203,-140 374,-318 514,-520 12,-17 73,-129 80,-134 229,-431 311,-889 563,-1304 103,-169 254,-347 319,-536l21 -59 7 5c0,34 -18,93 -28,127 -24,199 -159,339 -224,519 65,-92 137,-202 212,-285 127,-141 259,-285 393,-421z"/>
  <path class="fil1" d="M6495 11591c18,-12 30,-21 52,-21 73,-1 151,16 223,27 187,28 383,51 570,17 144,-26 323,-71 410,-200 58,-86 82,-207 59,-308 -82,-362 -467,-324 -698,-473l-1 -7c158,65 356,46 544,125 135,69 248,164 295,313 22,68 25,139 30,210 74,-28 312,-211 367,-205l17 25c5,11 10,17 19,24 18,15 39,18 62,15 78,-11 154,-85 198,-146 195,-52 396,-132 581,-213 69,-31 135,-68 206,-96 -26,27 -53,53 -80,79 -143,163 -518,382 -736,398 -4,0 -9,1 -13,1 -89,36 -186,70 -268,120 -69,42 -136,108 -211,138 -257,258 -669,428 -1033,428 -275,0 -539,-79 -811,-103 79,-43 149,-92 219,-148z"/>
  <path class="fil1" d="M7077 11201c87,-22 170,-39 259,-48 121,46 264,62 392,71 -8,47 -23,90 -40,135 -202,-8 -432,-62 -611,-158z"/>
  <path class="fil1" d="M11336 6779c10,-33 46,-89 65,-119 23,44 45,89 67,134 -290,571 -238,962 -204,1584 48,869 -311,1462 -982,1983 -93,72 -203,141 -302,206 59,-86 116,-206 165,-273 20,-28 187,-146 235,-188 190,-169 359,-370 496,-583 51,-79 96,-192 130,-279 14,-36 34,-109 47,-137 69,-245 75,-406 73,-655 -11,-92 -11,-218 -18,-316 -42,-573 -35,-845 228,-1357z"/>
  <path class="fil1" d="M11125 5574c15,42 17,91 27,134 20,91 50,186 90,270 168,356 448,627 508,1033 63,423 -97,841 -346,1177 -17,27 -36,52 -55,77l-9 -212c27,-52 62,-100 91,-151 77,-139 141,-293 180,-447 14,-56 18,-116 23,-174 30,-371 -131,-638 -313,-941 -125,-207 -257,-521 -195,-768z"/>
  <path class="fil1" d="M11639 5701c25,50 41,102 51,157 25,130 12,487 -60,592 -27,-37 -49,-79 -73,-119 98,-258 82,-370 82,-630z"/>
  <g id="_1194561296">
   <path class="fil0" d="M6324 1685c273,-78 638,5 917,34 72,7 192,27 261,7l11 1c-23,15 -41,13 -68,14l-10 7 2 22c21,6 24,6 45,7l7 6c-34,4 -101,1 -137,-1 -238,-8 -478,-52 -715,-78 -76,-8 -249,-4 -312,-21z"/>
   <path class="fil0" d="M1666 4351l5 5c5,38 -111,291 -134,349 -123,308 -212,633 -275,959 -35,184 -61,377 -75,563 -11,148 -23,297 -25,445 -1,58 18,152 0,206 -4,-9 -6,-17 -8,-27 -17,-110 -19,-221 -22,-331 -17,-633 94,-1297 368,-1871 48,-101 99,-206 164,-298z"/>
   <path class="fil0" d="M3641 2387l10 6c-14,37 -122,82 -157,106 -138,95 -274,193 -408,294 -357,276 -648,599 -924,954 -94,121 -191,242 -265,376l-7 0c0,-9 0,-17 4,-26 29,-83 134,-241 184,-318 381,-587 929,-1089 1563,-1392z"/>
   <path class="fil0" d="M1016 6711c56,529 55,869 272,1376 -70,-83 -168,-286 -196,-393l-10 103c-105,-167 -133,-394 -124,-588 17,58 30,95 59,148 -22,-215 -36,-432 -1,-647z"/>
   <path class="fil0" d="M1179 8192c2,1 4,1 6,2 28,11 56,40 78,61 248,244 337,723 473,1043 31,72 69,140 109,207 25,41 54,82 72,126 -236,-138 -412,-801 -524,-1060 -57,-133 -134,-260 -214,-380z"/>
   <path class="fil0" d="M1929 9993c-18,-3 -34,-25 -44,-40 -155,-219 -529,-663 -496,-932 62,175 97,239 193,394 85,139 314,433 348,578z"/>
   <path class="fil0" d="M727 8077c95,20 186,161 259,215 1,1 17,-2 21,-3l18 26c91,123 160,304 212,448l-9 4c-30,-32 -93,-154 -122,-203 -77,-130 -140,-224 -233,-341 -28,-30 -60,-116 -119,-109l-9 31 -18 -67z"/>
   <path class="fil0" d="M754 6158l4 -10c138,98 102,554 135,616l0 18 -9 7c-49,-8 -60,-499 -93,-427 -8,-49 -20,-163 -37,-205z"/>
   <path class="fil0" d="M8600 11155c98,-87 345,-190 471,-258 74,-40 145,-87 222,-123 18,-9 36,-14 56,-17 -143,163 -518,382 -736,398 -4,0 -9,1 -13,1z"/>
  </g>
 </g>
 <g id="Eicheln">
  <metadata id="CorelCorpID_1Corel-Layer"/>
  <path class="fil2" d="M148 6108c11,-1 22,-2 33,-2 50,-2 96,14 132,49 19,19 32,42 32,70 0,34 -14,61 -37,85 -23,6 -48,12 -72,7 -36,-8 -64,-36 -83,-66 -22,-34 -36,-84 -24,-124 4,-13 8,-12 19,-18z"/>
  <path class="fil2" d="M12260 5841c17,19 18,56 19,82 3,94 -27,207 -94,275 -49,50 -103,67 -172,68 -4,-6 -5,-8 -8,-14 -25,-53 -21,-121 -1,-175 43,-117 147,-188 256,-236z"/>
  <path class="fil2" d="M11090 2670c74,28 144,118 191,179 -59,35 -115,58 -182,74l-59 9c-36,-64 -73,-114 -125,-166 71,-20 121,-44 175,-95z"/>
  <path class="fil1" d="M10731 2766c24,6 47,14 69,24 68,32 125,85 151,157 -37,-3 -74,-10 -108,-27 -66,-33 -91,-89 -112,-155z"/>
  <path class="fil1" d="M10875 2594c25,-2 51,-4 76,-3 24,2 44,5 60,24l-4 14c-31,28 -70,38 -110,49 -50,5 -94,2 -143,-5 37,-42 67,-65 121,-80z"/>
  <path class="fil2" d="M1179 2924c68,30 119,67 170,120 -46,124 -46,219 -18,347 -8,0 -11,0 -20,-2 -56,-14 -103,-50 -130,-100 -59,-110 -36,-252 -2,-365z"/>
  <path class="fil1" d="M1415 3100c17,11 25,29 31,47 23,63 7,132 -19,191l-8 4 -8 -4c-27,-62 -18,-176 3,-238z"/>
 </g>
 <g id="Blätter">
  <metadata id="CorelCorpID_2Corel-Layer"/>
  <g id="_1194566576">
   <path class="fil3" d="M7819 1670c64,16 101,8 157,-30 111,-79 208,-167 321,-245 479,-327 1029,-449 1601,-322 562,126 1033,474 1467,838 39,33 107,88 113,139 -14,31 -89,54 -121,66 -598,229 -1216,348 -1854,235 -230,-41 -428,-101 -652,-171 -70,-27 -353,-142 -414,-146 -171,-82 -412,-214 -595,-236 -103,-12 -232,-1 -343,-13l-12 -1 -7 -6c-21,-1 -25,0 -45,-7l-2 -22 10 -7c27,-2 45,1 68,-14 42,-3 86,-5 127,-15 39,-12 148,-5 182,-30l-4 -13z"/>
   <path class="fil4" d="M8240 1559c947,-703 1903,-496 2771,192 88,70 185,138 268,213 12,6 53,43 66,54 -1284,476 -1999,310 -3220,-241 634,-121 1200,-137 1841,-39 214,33 408,82 617,122 -4,-4 -9,-7 -13,-11 -70,-53 -259,-101 -349,-125 -719,-192 -1373,-177 -2101,-71 36,-30 82,-70 121,-94z"/>
   <path class="fil5" d="M8240 1559c947,-703 1903,-496 2771,192 88,70 185,138 268,213 -6,3 -19,6 -24,3 -55,-34 -120,-74 -174,-108 -365,-239 -717,-460 -1146,-561 -553,-131 -1055,-9 -1563,211 -31,13 -105,59 -132,50z"/>
  </g>
  <g id="_1194569680">
   <path class="fil3" d="M9101 3212c-89,-362 -145,-621 -167,-776 214,-43 777,41 1066,187 287,145 528,350 695,599 287,427 358,992 376,1583 3,90 -59,56 -103,32 -298,-170 -599,-315 -895,-469 -511,-286 -835,-671 -971,-1155z"/>
   <path class="fil4" d="M10522 4024c-38,-107 -140,-264 -206,-359 -223,-322 -486,-614 -782,-869 -93,-81 -242,-179 -316,-248l-10 -9c46,3 157,6 199,18 117,18 224,36 337,74 331,109 617,299 825,585 311,427 385,984 404,1498 -1,3 -1,6 -2,10l-8 3 -11 -8c-85,-51 -182,-111 -270,-155 -270,-135 -546,-248 -793,-426 -562,-404 -719,-893 -822,-1537 384,230 808,630 1091,974 68,83 135,168 200,254 42,54 114,154 164,196z"/>
   <path class="fil5" d="M9407 2557c117,18 224,36 337,74 331,109 617,299 825,585 311,427 385,984 404,1498 -1,3 -1,6 -2,10l-8 3 -11 -8c-105,-850 -369,-1660 -1205,-2011 -50,-21 -322,-118 -346,-138l5 -12z"/>
  </g>
  <g id="_1194570416">
   <path class="fil3" d="M6238 1892c195,18 342,39 527,98 665,212 1043,819 1242,1451 19,59 53,152 51,214 -29,48 -84,21 -128,8 -523,-163 -1062,-159 -1519,-507 -273,-208 -477,-471 -627,-781 -41,-83 -100,-247 -157,-312 -91,-33 -200,-54 -297,-50 -19,-30 -15,-47 8,-71 31,-4 99,-15 128,-13 263,21 509,-48 772,-37z"/>
   <path class="fil4" d="M5934 1998c114,-5 231,-10 345,-2 368,28 738,161 1012,412 282,259 471,617 591,976 16,47 44,121 52,164 -6,8 -3,7 -8,8 -261,-84 -565,-117 -844,-194 -512,-142 -846,-418 -1120,-866 -75,-123 -122,-269 -190,-389l-5 -9c483,166 915,430 1314,744 93,73 196,165 299,221 -43,-69 -142,-164 -203,-221 -369,-339 -792,-614 -1251,-812 -19,-8 -25,-9 -41,-22 13,-11 29,-9 50,-11z"/>
   <path class="fil5" d="M5934 1998c114,-5 231,-10 345,-2 368,28 738,161 1012,412 282,259 471,617 591,976 16,47 44,121 52,164 -6,8 -3,7 -8,8 -7,-9 -74,-134 -80,-147 -242,-495 -509,-952 -1039,-1187 -196,-87 -670,-238 -881,-192 -19,-8 -25,-9 -41,-22 13,-11 29,-9 50,-11z"/>
  </g>
  <g id="_1194578160">
   <path class="fil3" d="M6837 1325l6 -11c31,-56 67,-170 107,-247 135,-267 374,-467 661,-552 255,-78 528,-71 790,-42 55,6 176,8 210,52 10,48 -37,109 -61,150 -214,358 -515,680 -940,764 -157,31 -307,25 -464,5 -67,-8 -196,-35 -256,-24 -37,-38 -42,-43 -52,-95z"/>
   <path class="fil4" d="M7948 552c177,-18 370,2 545,30 -114,210 -276,411 -464,558 -317,247 -619,240 -998,191 175,-116 356,-223 543,-320 68,-35 138,-69 208,-100 63,-28 137,-50 193,-91l-2 -11c-27,-8 -71,8 -98,15 -226,56 -454,172 -657,284 -80,44 -156,94 -238,135 32,-117 109,-234 186,-325 203,-241 474,-339 782,-366z"/>
  </g>
  <g id="_1194582608">
   <path class="fil3" d="M3423 1983c1,-39 -46,-197 -55,-253 -103,-599 282,-1010 780,-1264 50,-26 95,-63 155,-67 41,17 40,61 43,101 22,292 36,588 -85,862 -115,260 -304,427 -554,553 -57,29 -151,70 -192,114l-22 -8c-37,-12 -39,-12 -69,-38z"/>
   <path class="fil4" d="M4253 522c14,201 22,349 -8,550 -59,295 -174,496 -429,667 -76,50 -155,94 -238,131 16,-43 86,-229 105,-256 89,-244 233,-456 322,-673 -182,164 -416,669 -519,894 -37,-214 -54,-389 17,-602 109,-330 446,-566 750,-712z"/>
  </g>
  <g id="_1194582736">
   <path class="fil3" d="M1372 6714c145,-254 330,-410 577,-562 31,-19 61,-38 96,-21 52,74 19,483 4,582 -54,358 -294,640 -612,807 -64,14 -63,50 -76,105 -8,31 -9,68 -11,100l1 8c-45,-259 -96,-439 -76,-705 12,-106 58,-215 98,-314z"/>
   <path class="fil4" d="M1972 6250c26,111 -6,406 -35,518 -70,269 -241,486 -480,626 61,-206 146,-388 240,-580 16,-32 54,-91 48,-126 -140,116 -294,472 -371,643 -6,-118 -11,-232 12,-348 66,-342 312,-547 587,-732z"/>
  </g>
  <g id="_1194584880">
   <path class="fil3" d="M8164 2331l6 3c57,28 126,50 180,81 177,103 328,258 393,455 64,193 72,400 55,601 -2,29 -9,116 -25,134 -41,49 -154,-46 -197,-72 -97,-60 -195,-130 -274,-211 -248,-244 -309,-599 -224,-929 32,-36 41,-45 86,-63z"/>
   <path class="fil4" d="M8249 2472c96,37 197,117 265,193 206,234 210,547 191,842 -210,-136 -363,-239 -485,-466 -90,-169 -88,-356 -65,-541 56,85 112,171 161,260 35,63 146,314 179,346l9 -3c20,-99 -201,-532 -253,-631z"/>
  </g>
  <g id="_1194584624">
   <path class="fil3" d="M4888 2302c54,-13 101,-24 155,-28 318,-21 552,214 665,490 3,7 1,19 0,26 -15,21 -35,30 -61,33 -389,34 -659,-59 -813,-432 20,-40 26,-51 53,-88z"/>
   <path class="fil4" d="M5021 2371c103,-14 201,6 292,55 105,57 243,194 278,309 -22,9 -55,4 -79,4 -99,1 -202,-15 -294,-54 -135,-58 -229,-165 -282,-300l86 -14z"/>
  </g>
  <g id="_1194588016">
   <path class="fil3" d="M1885 4628c64,-56 119,-117 188,-172 366,-293 850,-396 1306,-443 19,-2 31,4 43,16 4,21 1,35 -8,55 -30,68 -84,126 -119,191 -112,210 -199,430 -332,630 -293,442 -711,671 -1222,772 -95,19 -184,18 -246,106 -97,138 -131,747 -126,933 -40,99 -86,208 -98,314 -16,-270 2,-547 35,-814 7,-58 10,-123 11,-181 -21,31 -41,83 -63,121l-7 -5c-25,-82 100,-333 133,-425 74,-71 95,-299 133,-417 96,-294 180,-439 369,-679z"/>
   <path class="fil4" d="M3200 4130c27,-4 53,-8 80,-11 -102,174 -185,344 -275,524 -285,570 -761,857 -1377,952 195,-283 485,-561 750,-777 113,-92 256,-187 356,-288 -241,82 -704,465 -894,655 -71,71 -158,177 -220,235l-42 58c41,-203 144,-456 263,-625 358,-508 802,-616 1359,-722z"/>
   <path class="fil5" d="M3200 4130l15 10c-17,35 -364,135 -429,159 -396,143 -766,358 -987,731 -59,99 -182,272 -180,391l-42 58c41,-203 144,-456 263,-625 358,-508 802,-616 1359,-722z"/>
  </g>
  <g id="_1194587536">
   <path class="fil3" d="M5571 3387c-668,-663 -1354,-845 -2016,-566 -322,122 -514,265 -576,430 -98,15 -192,49 -281,103 10,35 -18,98 -84,189 121,-103 236,-166 344,-189 434,344 906,514 1414,511 226,-1 829,-179 1206,-279 46,-9 75,-8 100,-37 0,-51 -46,-95 -107,-160z"/>
   <path class="fil4" d="M3169 3176l-36 4 -7 -6c16,-19 82,-63 106,-79 243,-155 499,-258 786,-288 501,-53 935,174 1308,486 53,44 155,132 199,185l11 9c-12,13 -101,31 -125,37 -321,83 -635,212 -968,237 -522,38 -956,-153 -1371,-446 476,-119 1008,-92 1488,-11 65,11 316,74 355,56l-3 -9c-40,-21 -191,-68 -240,-81 -350,-95 -730,-138 -1092,-129 -136,3 -276,22 -411,37z"/>
   <path class="fil5" d="M3169 3176l-36 4 -7 -6c16,-19 82,-63 106,-79 243,-155 499,-258 786,-288 501,-53 935,174 1308,486 53,44 155,132 199,185 -21,7 -71,-30 -95,-45 -147,-92 -290,-206 -437,-294 -339,-202 -682,-289 -1077,-232 -142,21 -665,159 -746,269z"/>
  </g>
  <g id="_1194589520">
   <path class="fil3" d="M4460 1709c23,-11 28,-92 33,-120 9,-52 21,-103 35,-154 338,-1210 1444,-1459 2542,-1433 23,1 52,6 67,25 12,61 -93,199 -126,261 -251,474 -518,833 -954,1148 -60,26 -106,66 -160,100 -73,22 -167,74 -249,103 -226,85 -463,140 -704,163 -114,12 -254,17 -364,40 -57,12 -150,110 -206,144 -105,65 -195,100 -313,134 43,-33 119,-92 155,-133l23 -16c63,-43 99,-78 150,-135 56,-45 72,-52 71,-127z"/>
   <path class="fil4" d="M4614 1594l-15 16c-5,-10 -4,-9 -2,-24 78,-418 318,-820 661,-1071 413,-302 940,-385 1438,-412 51,-3 260,-10 298,-4l6 10c-80,138 -157,278 -240,413 -347,564 -758,943 -1414,1107 -243,61 -426,83 -680,95 67,-83 166,-169 244,-244 291,-278 593,-511 933,-726 102,-64 446,-245 500,-301 -106,26 -219,79 -318,126 -392,193 -757,435 -1087,721 -63,53 -279,270 -325,292z"/>
   <path class="fil5" d="M4614 1594l-15 16c-5,-10 -4,-9 -2,-24 78,-418 318,-820 661,-1071 413,-302 940,-385 1438,-412 51,-3 260,-10 298,-4l6 10c-633,119 -1278,148 -1792,589 -287,246 -462,548 -595,896z"/>
  </g>
  <g id="_1194593328">
   <path class="fil3" d="M1802 3527c8,-15 13,-17 7,-34 -17,-58 -40,-118 -60,-175 -33,-96 -59,-193 -80,-292 -53,-248 -56,-504 -11,-754 136,-707 691,-1151 1255,-1527 33,-22 65,-46 106,-38 42,33 31,77 30,125 -4,293 26,578 13,872 -15,314 -81,552 -205,836 -30,55 -86,149 -100,206 -43,42 -76,73 -112,122 -71,70 -131,155 -206,230 -147,148 -333,273 -469,429 -35,40 -55,171 -76,222 -24,89 -175,377 -229,433 30,-88 97,-227 99,-313 35,-72 48,-128 55,-207 7,-58 -2,-78 -17,-135z"/>
   <path class="fil4" d="M2939 849l9 -5c7,17 3,199 6,235 30,431 34,880 -130,1288 -123,304 -355,579 -600,795 -75,66 -160,131 -233,197 53,-441 233,-970 406,-1379 49,-115 174,-350 197,-451 -60,61 -148,216 -191,294 -279,502 -414,970 -539,1525 -11,-34 -30,-85 -38,-119 -104,-340 -135,-711 -40,-1056 150,-545 589,-941 1040,-1249 38,-26 74,-52 115,-75z"/>
   <path class="fil5" d="M2939 849l3 15c-26,39 -258,231 -313,284 -387,367 -722,771 -805,1317 -24,162 -23,329 -16,491 3,57 23,232 17,273 -104,-340 -135,-711 -40,-1056 150,-545 589,-941 1040,-1249 38,-26 74,-52 115,-75z"/>
  </g>
  <g id="_1194593840">
   <path class="fil3" d="M671 6017c1,-32 -81,-102 -107,-132 -45,-53 -88,-108 -129,-165 -600,-832 -365,-1718 141,-2516 33,-52 65,-116 116,-152 24,-3 12,-5 35,6 20,24 79,185 101,231 201,424 330,677 390,1147 5,44 3,153 18,181 -13,47 -15,169 -19,226 -10,35 -12,91 -19,130 -22,119 -45,238 -80,354 -65,228 -194,438 -274,651 29,156 60,294 59,454 0,112 74,433 -11,331 -85,-102 -47,-422 -135,-616 -3,-46 -45,-110 -87,-132z"/>
   <path class="fil4" d="M668 3243l12 -25 9 0c21,33 26,61 42,97 31,68 62,136 94,204 132,281 236,508 282,820 79,536 -61,1008 -303,1479 -106,-373 -154,-906 -151,-1294 2,-108 5,-216 9,-324 1,-38 9,-144 4,-177l-9 -3c-19,25 -23,67 -28,98 -80,487 -61,983 9,1471 14,94 35,192 45,286 -32,-47 -131,-157 -146,-186 -132,-162 -262,-451 -310,-649 -162,-667 112,-1242 442,-1795z"/>
   <path class="fil5" d="M668 3243c17,51 -85,268 -109,328 -164,414 -309,798 -276,1253 18,245 87,490 192,712 14,31 73,124 62,151 -132,-162 -262,-451 -310,-649 -162,-667 112,-1242 442,-1795z"/>
  </g>
  <g id="_1194529360">
   <path class="fil3" d="M727 8077c-35,-19 -74,-31 -110,-46 -332,-142 -547,-413 -595,-772 -4,-31 -64,-527 28,-491 211,85 412,262 557,436 24,41 71,143 107,155 22,178 114,355 107,548 -4,99 101,223 151,309l34 73c-4,1 -20,4 -21,3 -73,-54 -164,-195 -259,-215z"/>
   <path class="fil4" d="M96 6890c64,34 129,82 186,126 298,228 395,487 442,849 -80,-97 -158,-195 -230,-299 -51,-75 -97,-153 -149,-228 -11,-15 -21,-35 -40,-38l-1 10c76,235 229,444 372,642 -121,-61 -238,-124 -333,-223 -212,-221 -252,-546 -246,-839z"/>
  </g>
 </g>
 <g id="Wurzelmann-Rechts">
  <metadata id="CorelCorpID_3Corel-Layer"/>
  <path class="fil6" d="M9261 5743c39,-71 82,-139 122,-210 89,-158 135,-322 156,-502 20,-150 -7,-299 -12,-448 9,-9 19,-22 31,-26 53,-13 73,74 80,111 36,190 50,380 43,573 -6,155 -4,304 -48,454 -11,38 -76,169 -64,195 38,-11 78,-75 97,-107 69,-113 65,-214 88,-323 40,-187 281,-457 440,-557 23,19 41,34 62,56 -35,57 -95,98 -142,145 -113,112 -208,301 -226,460 -19,171 -11,254 -75,414 56,-55 105,-126 148,-194 130,-206 320,-385 558,-452 15,-4 28,8 38,19 7,20 14,31 7,51 -33,30 -76,42 -112,66 -578,388 -378,1081 -640,1627 -93,194 -252,393 -470,469 -24,12 -76,33 -92,51l5 8c78,20 150,-9 187,1 373,47 696,2 1011,-212 72,-88 89,-149 144,-246 0,40 -3,88 13,123 71,49 196,-113 258,-108l7 12c1,29 -8,51 -15,79 -25,60 -50,79 -93,121 -59,57 -178,84 -235,127 -240,181 -439,325 -744,379 -126,22 -294,49 -410,105 -75,40 -76,177 -80,250 -9,149 9,275 60,414 94,211 309,250 473,388 107,91 174,193 244,311 -13,33 -29,69 -41,102 -16,40 -31,82 -48,122 -92,-71 -185,-143 -287,-201 -171,-97 -452,-186 -649,-162 -167,21 -297,113 -398,245 -122,160 -296,495 -266,701 19,129 100,248 165,359 17,32 40,66 52,100 27,65 32,121 14,189 -28,104 -88,176 -180,230 16,-52 34,-105 44,-159 34,-182 -151,-314 -245,-450l-5 -7c-300,-377 -35,-753 6,-1167 13,-126 -30,-279 -48,-404 -52,-357 1,-720 150,-1048 4,-34 50,-119 46,-158l-9 -2 -21 20c-30,43 -60,86 -88,130 -107,51 -172,70 -278,137 -134,86 -164,189 -308,240 -104,110 -70,162 7,269 -37,-28 -75,-55 -88,-102 -24,-89 25,-200 69,-276 198,-336 456,-600 838,-708 38,56 52,67 104,106 -21,-62 -52,-128 -66,-191 -132,-489 118,-809 344,-1203 143,-250 163,-569 63,-836 -26,-70 -80,-147 -100,-216 31,-16 30,-22 60,-20 121,81 256,453 278,597 17,108 -12,212 -7,333 28,-59 52,-145 78,-195z"/>
  <path class="fil2" d="M10556 5351c7,20 14,31 7,51 -33,30 -76,42 -112,66 -578,388 -378,1081 -640,1627 -93,194 -252,393 -470,469 18,-38 126,-152 160,-193 83,-102 159,-221 213,-341 78,-174 90,-329 124,-506 45,-240 130,-566 264,-768 94,-143 220,-262 368,-347 24,-14 53,-34 80,-37l7 -19z"/>
  <path class="fil2" d="M8339 7818c20,36 -19,185 -29,231 -53,250 -80,506 -54,761 17,166 53,306 37,477 -13,126 -37,250 -71,372 -67,248 -127,424 -18,676 9,21 36,71 34,92l-8 9c-300,-377 -35,-753 6,-1167 13,-126 -30,-279 -48,-404 -52,-357 1,-720 150,-1048z"/>
  <path class="fil2" d="M7680 8185c107,-193 453,-485 674,-507 -30,43 -60,86 -88,130 -107,51 -172,70 -278,137 -134,86 -164,189 -308,240z"/>
  <path class="fil2" d="M10451 7412l5 10c-9,22 -50,53 -71,67 -249,169 -672,281 -961,147 8,-12 2,-7 16,-12 373,47 696,2 1011,-212z"/>
  <path class="fil7" d="M8788 6407c53,-20 162,-38 209,2 1,24 3,12 -14,34 -13,3 -26,3 -38,0 -47,-13 -159,21 -191,6 10,-14 23,-28 34,-42z"/>
  <path class="fil7" d="M8770 6947c42,5 156,94 215,117 128,51 236,6 333,39 5,10 7,11 7,22 -2,46 -58,89 -91,117 -68,49 -141,87 -228,77 -68,-8 -130,-44 -171,-99 -57,-76 -78,-181 -65,-273z"/>
  <path class="fil2" d="M8974 7185c50,-5 124,-4 168,25 10,6 6,5 9,18 -15,20 -38,25 -60,33 -51,6 -111,10 -157,-18 -13,-8 -13,-11 -15,-25 12,-20 34,-25 55,-33z"/>
  <path class="fil7" d="M9375 6742c44,-5 83,-6 124,13 36,17 64,48 76,86 7,24 10,55 -3,78 -6,10 -10,9 -21,13 -19,-10 -22,-19 -34,-36 -4,-7 -8,-14 -13,-20 -61,-75 -113,-23 -188,-34 -14,-2 -15,-4 -23,-15 1,-4 1,-8 2,-11 11,-34 51,-58 80,-74z"/>
  <path class="fil7" d="M8812 6563c13,0 26,1 39,3 36,6 68,27 88,57 19,28 24,55 19,87 -11,15 -10,15 -28,18 -22,-8 -34,-31 -47,-49 -72,-50 -141,5 -183,-25 -1,-17 -3,-10 5,-24 24,-41 63,-55 107,-67z"/>
  <path class="fil7" d="M9476 6543c12,0 25,0 37,3 52,10 110,49 138,93 18,28 23,51 16,83 -22,-13 -40,-37 -57,-56 -36,-40 -91,-52 -135,-83 -6,-19 -5,-21 1,-40z"/>
  <path class="fil7" d="M8974 6862c10,1 16,3 25,8 47,31 111,39 147,65l-2 12c-13,6 -27,13 -41,15 -31,5 -67,0 -91,-21 -27,-22 -34,-46 -38,-80z"/>
  <path class="fil6" d="M10896 9248c0,0 1,1 1,1 8,28 -34,100 -48,126 -75,142 -281,213 -426,256l-6 -6c19,-60 52,-118 79,-175 156,-32 280,-97 401,-201z"/>
  <path class="fil2" d="M9245 4982c18,-1 34,-1 51,0 24,15 29,36 36,63 21,79 56,238 40,314 -11,51 -44,100 -69,144 -9,18 -19,34 -30,51 -61,-127 -27,-246 -22,-379 3,-65 -2,-129 -7,-193z"/>
  <path class="fil2" d="M10208 5272l6 5c0,96 -178,264 -235,338l-6 8 -6 -8c-3,-59 22,-150 49,-203 40,-79 113,-114 193,-140z"/>
 </g>
 <g id="Wurzelmann-Mitte">
  <metadata id="CorelCorpID_4Corel-Layer"/>
  <path class="fil2" d="M7681 4510c14,21 19,27 29,50 -109,97 -215,193 -286,322 -377,683 169,1323 -412,1951 0,-5 -1,-9 -1,-14 8,-58 43,-133 66,-190 120,-308 113,-581 80,-907 -31,-312 29,-618 212,-880 67,-96 128,-200 228,-270 26,-19 64,-38 84,-63z"/>
  <path class="fil8" d="M6168 4250c163,177 292,388 302,629 1,36 5,116 12,146l10 -1c63,-96 36,-264 41,-377 8,-191 86,-535 205,-685 34,10 81,22 113,35 -55,144 -102,248 -102,405 0,39 9,157 5,185 -33,191 -86,300 -24,493 11,-78 12,-197 37,-265 42,-222 235,-527 403,-683 25,-23 31,-24 59,-22 19,26 35,39 58,60 -170,224 -293,451 -268,745 16,181 44,210 -26,387 87,-89 94,-124 109,-248 4,-24 5,-55 18,-76 101,-173 245,-320 404,-440 25,-19 108,-88 136,-57 8,9 14,18 20,29 14,21 19,27 29,50 -109,97 -215,193 -286,322 -377,683 169,1323 -412,1951l-7 15c14,27 130,112 162,140 256,219 434,552 538,867l-56 85c-6,12 -28,44 -37,57 -35,-77 -63,-130 -108,-202 -88,-142 -326,-391 -478,-458 -53,165 -42,435 -20,610 -6,2 -13,5 -19,7 -292,101 -791,85 -1068,-50 -15,-7 -26,-13 -40,-21 -25,-34 -14,-63 -7,-106 -4,-158 60,-455 84,-614l-15 -8c-189,-195 -349,-386 -455,-642 -62,-148 -101,-181 -72,-346 7,-68 5,-182 14,-236l5 1 6 23c128,374 276,574 613,775 5,3 29,16 35,11 20,-16 1,-33 -25,-79l-20 -48c-327,-718 297,-1152 221,-1829 -13,-118 -65,-257 -121,-361 -17,-31 -56,-86 -65,-111 8,-23 7,-17 32,-34l62 -30z"/>
  <path class="fil2" d="M6106 4280c21,19 50,69 66,96 107,179 151,321 164,527 27,412 -247,740 -304,1130 -13,90 -18,182 -14,273 3,57 35,275 20,309 -327,-718 297,-1152 221,-1829 -13,-118 -65,-257 -121,-361 -17,-31 -56,-86 -65,-111 8,-23 7,-17 32,-34z"/>
  <path class="fil6" d="M6767 4815c42,-222 235,-527 403,-683 25,-23 31,-24 59,-22 -24,83 -224,271 -275,373 -18,36 -179,330 -183,333l-4 -1z"/>
  <path class="fil7" d="M6257 6293c51,9 96,38 144,57 149,58 283,34 430,-13 20,19 55,47 62,74 -10,-1 -22,-2 -32,-1 -20,3 -28,21 -39,35 -16,21 -33,41 -53,59 -62,56 -145,85 -229,78 -87,-7 -167,-49 -222,-116 -40,-47 -67,-112 -61,-174z"/>
  <path class="fil2" d="M6695 6446c16,-2 26,-4 41,3 -6,67 -218,116 -265,62 20,-59 171,-64 224,-65z"/>
  <path class="fil7" d="M6224 5909c137,-11 202,137 133,136 -67,-1 -20,-86 -188,-35 -21,6 -27,0 -36,-20 -22,-50 45,-69 92,-81z"/>
  <path class="fil7" d="M6915 5802c78,-7 230,42 222,134l-12 6c-42,-26 -88,-59 -135,-73 -26,-8 -55,-6 -80,-16 -29,-12 -9,-37 5,-51z"/>
  <path class="fil7" d="M6369 5729c6,18 4,17 -4,34 -4,-10 -182,15 -200,30 -15,2 -23,-1 -34,-11 1,-6 1,-8 5,-14 38,-56 174,-80 232,-39z"/>
  <path class="fil7" d="M6447 6167c35,5 63,36 97,39 24,2 72,-14 91,-2l-3 25c-17,9 -34,17 -53,21 -33,7 -69,5 -96,-15 -24,-18 -30,-38 -36,-67z"/>
  <path class="fil6" d="M5797 8593c392,123 881,167 1268,12 3,27 4,36 11,62 -2,18 1,33 -17,42 -197,104 -320,224 -469,385 -147,-57 -361,-94 -495,11 40,6 87,2 128,0 -221,185 -360,450 -387,737 -12,128 1,253 15,380 6,59 10,137 -40,178 -40,33 -89,53 -138,69 -30,10 -63,20 -95,23 -56,12 -108,12 -164,11 63,-76 160,-116 220,-194 80,-103 8,-209 -7,-319 0,-2 0,-4 -1,-6 -17,-73 -32,-142 -44,-216 -57,-370 175,-717 210,-1077 3,-27 4,-70 5,-98z"/>
  <path class="fil2" d="M5797 8593c392,123 881,167 1268,12 3,27 4,36 11,62 -36,-7 -208,68 -263,80 -252,55 -750,69 -987,-51 -6,-5 -13,-10 -20,-14l-14 8c3,-27 4,-70 5,-98z"/>
  <path class="fil2" d="M5792 8691l14 -8c7,5 14,9 20,14 29,259 -164,614 -188,886 -7,74 4,366 -12,401 -17,-73 -32,-142 -44,-216 -57,-370 175,-717 210,-1077z"/>
  <path class="fil9" d="M6455 8287c-208,-20 -909,-86 -826,-438 14,-61 95,-110 150,-136 0,27 3,81 -14,100 -14,0 -26,1 -40,3l-5 12c41,138 257,196 380,225 290,69 755,88 1014,-72 -15,-34 -34,-61 -21,-95l15 -3c28,15 48,38 61,67 85,192 -199,262 -311,308l3 4c65,4 107,-13 169,-30 61,-29 101,-48 156,-89 9,31 19,63 28,94 -65,61 -146,102 -233,121 -163,54 -337,63 -508,63 -32,0 -189,-8 -206,0 42,33 254,54 315,56 223,-1 435,-28 631,-141 -30,83 -81,148 -166,183 -346,143 -856,115 -1202,-6 -140,-49 -199,-99 -258,-227 51,28 195,88 250,92 -64,-36 -188,-88 -228,-143 -33,-45 -16,-99 -6,-150l9 6c237,177 557,239 846,196z"/>
  <path class="fil6" d="M7393 10592c-81,-4 -308,-47 -341,-132 -33,-86 -29,-251 -32,-349 -8,-322 -95,-528 -252,-802 64,-101 205,-225 309,-282 15,-9 27,-19 40,-30l15 1c19,29 43,155 54,196 106,376 92,530 36,906 -9,94 -30,233 37,310 56,64 160,85 229,186 -32,0 -65,2 -96,-5z"/>
  <path class="fil2" d="M7249 4375c29,11 52,27 78,44 -45,138 -87,260 -180,373l-46 63c4,-168 54,-341 149,-481z"/>
  <path class="fil6" d="M7872 8162c17,35 13,97 0,133 -12,34 -36,65 -70,80 -27,11 -45,7 -71,-3 -13,-14 -28,-32 -32,-51 -12,-75 116,-86 167,-152 2,-2 3,-4 5,-7z"/>
  <path class="fil7" d="M7016 6017c-123,-60 -238,53 -173,78 62,24 50,-73 188,36 17,14 25,10 41,-5 39,-38 -17,-80 -56,-109z"/>
  <path class="fil10" d="M6100 8053c290,69 755,88 1014,-72 -15,-34 -34,-61 -21,-95l15 -3c28,15 48,38 61,67 85,192 -199,262 -311,308l3 4c65,4 107,-13 169,-30 61,-29 101,-48 156,-89 9,31 19,63 28,94 -65,61 -146,102 -233,121 -163,54 -337,63 -508,63 -32,0 -189,-8 -206,0 42,33 254,54 315,56 223,-1 435,-28 631,-141 -30,83 -81,148 -166,183 -346,143 -856,115 -1202,-6 -140,-49 -199,-99 -258,-227 51,28 195,88 250,92 -64,-36 -188,-88 -228,-143 -33,-45 -16,-99 -6,-150l9 6c237,177 557,239 846,196 -208,-20 -909,-86 -826,-438 14,-61 95,-110 150,-136 0,27 3,81 -14,100 -14,0 -26,1 -40,3l-5 12c41,138 257,196 380,225z"/>
  <path class="fil2" d="M5869 7777c1,32 -4,52 14,73l43 14 4 19 -14 20c-15,-7 -26,-13 -40,-21 -25,-34 -14,-63 -7,-106z"/>
  <path class="fil6" d="M5288 5512c17,-1 35,-4 52,-1 31,6 60,32 75,58 40,70 27,152 7,226 -3,2 -7,1 -10,1 -25,-112 -63,-186 -124,-284z"/>
 </g>
 <g id="Wurzelmann-links">
  <metadata id="CorelCorpID_5Corel-Layer"/>
  <path class="fil8" d="M3771 4386c27,1 29,-3 46,10 -38,241 -106,396 -30,664 20,71 48,139 69,206 14,23 28,47 42,70 -7,-215 20,-376 123,-573 33,-62 135,-198 204,-227 8,-3 16,4 25,10 25,17 31,14 39,37 -21,40 -66,89 -92,135 -222,388 -28,723 203,1048 230,324 312,741 238,1135 -7,41 -33,131 -19,162 35,-4 68,-83 81,-115 33,-85 145,-160 212,-259 154,-231 332,-596 281,-875 -29,-92 -35,-159 24,-239 116,126 121,307 114,469 -17,388 -219,982 -486,1262 -24,-38 -42,-70 -63,-110 11,220 88,333 166,534 155,398 235,825 154,1250 -11,56 -37,177 -57,227 -10,65 -52,154 -79,216 -49,-109 -88,-176 -150,-277 46,-74 71,-124 108,-201 20,-83 30,-111 24,-198 -41,121 -100,235 -175,339 -121,-165 -191,-258 -379,-356 29,37 58,74 88,111 317,341 541,839 608,1297 9,59 30,196 31,254 0,2 1,4 1,6 41,211 -12,452 104,646 40,67 100,120 144,185 -130,-29 -276,-94 -348,-213 -51,-83 -47,-188 -65,-281 -12,-64 -28,-127 -44,-190 -17,-33 -37,-131 -53,-173 -44,-119 -113,-256 -189,-357 -251,-336 -600,-465 -751,-885 -92,-255 -63,-428 -64,-686 -1,-219 -44,-509 -154,-698 -99,184 -197,356 -348,504 -116,114 -236,209 -348,328 -81,102 -77,180 -118,302 -7,-54 -8,-114 -70,-126 -69,16 -157,165 -205,233 27,-303 202,-434 385,-651 65,-78 125,-161 178,-249 52,-84 99,-170 142,-259 55,-115 108,-243 180,-347 42,-61 128,-112 190,-153 -19,-15 -41,-30 -62,-44 -303,-214 -406,-615 -376,-968 26,-308 169,-633 -9,-922 -46,-74 -138,-119 -221,-135 -51,-47 61,-126 123,-119 123,15 231,67 310,165 36,43 64,132 82,149l18 2c-3,-83 -19,-185 -26,-271 -18,-211 12,-424 89,-621 54,-97 22,-154 151,-175z"/>
  <path class="fil2" d="M3024 5256c18,-12 37,-25 59,-17 119,44 215,109 278,219 221,386 -219,1325 295,1789 17,22 36,40 47,56 13,17 -9,18 -12,21 -28,-21 -47,-34 -62,-44 -303,-214 -406,-615 -376,-968 26,-308 169,-633 -9,-922 -46,-74 -138,-119 -221,-135z"/>
  <path class="fil2" d="M3009 8575l-12 -7c17,-82 267,-330 345,-414 52,-56 264,-440 362,-422 43,8 101,219 115,276 35,151 52,305 50,460 -1,133 -8,278 5,409 23,205 116,408 247,566 118,141 274,250 405,378 204,200 328,440 397,713l-8 7c-17,-33 -37,-131 -53,-173 -44,-119 -113,-256 -189,-357 -251,-336 -600,-465 -751,-885 -92,-255 -63,-428 -64,-686 -1,-219 -44,-509 -154,-698 -99,184 -197,356 -348,504 -116,114 -236,209 -348,328z"/>
  <path class="fil2" d="M5194 5813c53,28 42,91 41,144 -6,315 -238,850 -522,999l-11 -8c33,-85 145,-160 212,-259 154,-231 332,-596 281,-875z"/>
  <path class="fil11" d="M4250 9715c94,74 179,161 261,249 -100,125 -265,235 -400,316 -89,53 -187,102 -260,177 -41,43 -65,88 -88,142 -19,58 -27,118 -32,179 -8,-18 -16,-36 -22,-55 -32,-93 -58,-283 -7,-371 33,-57 181,-143 237,-192 140,-121 233,-279 311,-444z"/>
  <path class="fil6" d="M3771 4386c27,1 29,-3 46,10 -38,241 -106,396 -30,664 20,71 48,139 69,206l-12 3c-25,-14 -57,-58 -69,-83 -130,-263 -75,-539 -5,-799z"/>
  <path class="fil2" d="M3620 4561c15,37 -1,141 -4,185 -10,117 -17,234 -22,352 -4,101 3,233 -8,326 -12,19 -10,18 -29,30 -3,-83 -19,-185 -26,-271 -18,-211 12,-424 89,-621z"/>
  <path class="fil2" d="M4818 9145c46,-74 71,-124 108,-201 70,263 35,168 75,403 -11,39 -23,53 -33,75 -49,-109 -88,-176 -150,-277z"/>
  <path class="fil7" d="M4386 6659l14 2c10,8 15,11 18,25 14,67 -23,181 -58,238 -37,61 -94,102 -164,117 -99,21 -183,-14 -264,-67 -30,-24 -59,-50 -81,-82 -13,-19 -17,-30 -13,-53 34,-33 130,-8 177,-9 158,-3 263,-59 370,-172z"/>
  <path class="fil2" d="M4124 6908c34,0 90,2 118,24 11,9 12,11 13,25 -21,27 -63,30 -95,36 -67,0 -114,-12 -171,-46 45,-24 85,-34 135,-40z"/>
  <path class="fil7" d="M3701 6457c147,-17 176,70 167,84 -19,31 -134,-12 -181,26 -9,8 -71,125 -99,81 -29,-47 9,-142 112,-191z"/>
  <path class="fil7" d="M4342 6246c68,-10 158,6 172,77 -21,28 -126,-3 -154,11 -23,11 -62,102 -91,79 -9,-7 -34,-101 74,-167z"/>
  <path class="fil7" d="M3657 6239c27,0 36,-2 48,23 -12,40 -104,77 -138,104 -24,19 -37,42 -61,67l-10 -2c-8,-25 -1,-47 10,-70 31,-65 86,-98 151,-122z"/>
  <path class="fil7" d="M4299 6041c45,-1 122,8 147,49 -16,29 -62,13 -90,10 -53,-5 -116,25 -150,-2 9,-42 55,-49 92,-57z"/>
  <path class="fil12" d="M4031 6656c-32,-5 -25,-54 8,-49 49,-1 114,-1 128,-68 1,-33 51,-31 50,2 -2,39 -15,76 -49,98 -39,26 -92,24 -137,17z"/>
 </g>
</svg>
