<svg xmlns="http://www.w3.org/2000/svg" xml:space="preserve" style="shape-rendering:geometricPrecision;text-rendering:geometricPrecision;image-rendering:optimizeQuality;fill-rule:evenodd;clip-rule:evenodd" viewBox="0 0 1764 1996"><path d="M856 1988V333c-129 10-246 98-333 237L302 417c-6-4-12-5-18-4l-116 21c-13 2-21 15-19 27 2 13 15 21 27 19l107-19 216 149c-72 131-118 298-127 483l-269 14c-7 0-13 4-17 9l-79 87c-9 10-8 25 2 33 10 9 25 8 33-2l73-81 256-13v20c0 190 40 366 106 506l-171 171c-5 5-7 12-7 19v117c0 13 11 24 24 24s24-11 24-24v-109l153-153c8 14 15 27 23 40 87 139 204 228 334 238zm406-281 156 156v109c0 13 11 24 24 24s24-11 24-24v-117c1-7-2-14-7-19l-174-174c66-139 105-313 105-502v-20l261 13 73 81c9 10 24 10 33 2 10-9 10-24 2-33l-79-87c-4-5-10-8-17-9l-274-14c-9-183-55-350-126-480 0 0 1 0 1-1l218-151 107 19c13 2 25-6 27-19s-6-25-19-27l-116-21c-6-1-13 0-18 4l-224 155-1-2c-87-139-204-228-334-238v1655c129-10 247-99 334-238 9-14 17-28 25-43zM906 1c-147-14-279 99-294 253-4 44 1 86 15 124 75-60 161-94 252-94 90 0 175 33 250 93 8-23 14-47 16-72 15-154-92-290-240-304z" style="fill:#2b2a29"/></svg>